<?xml version="1.0" encoding="UTF-8" standalone="no"?>
<!DOCTYPE svg PUBLIC "-//W3C//DTD SVG 1.1//EN" "http://www.w3.org/Graphics/SVG/1.1/DTD/svg11.dtd">
<svg xmlns="http://www.w3.org/2000/svg" version="1.1" viewBox="0.00 0.00 90.00 40.00">
<path fill="#6431c2" d="
  M 51.66 20.06
  L 47.73 20.06
  Q 47.13 20.06 47.12 19.45
  Q 47.06 16.75 47.73 15.12
  Q 48.00 14.46 48.72 14.46
  L 51.71 14.46
  Q 51.99 14.46 51.99 14.17
  L 51.99 11.07
  Q 51.99 10.83 51.76 10.78
  C 48.81 10.18 44.69 10.33 43.30 13.58
  Q 42.36 15.75 42.68 19.09
  Q 42.77 20.04 41.81 20.04
  L 39.34 20.04
  Q 38.60 20.04 38.60 20.78
  L 38.60 23.60
  Q 38.60 24.30 39.30 24.30
  L 42.08 24.30
  Q 42.62 24.30 42.62 24.83
  L 42.62 34.97
  Q 42.62 35.93 41.69 35.67
  Q 33.41 33.37 30.47 26.61
  Q 27.60 20.03 30.41 13.58
  C 35.20 2.60 51.14 0.21 58.19 11.04
  Q 64.15 20.20 57.61 29.82
  Q 54.69 34.11 47.78 35.69
  Q 47.15 35.84 47.15 35.19
  L 47.15 24.91
  Q 47.15 24.28 47.77 24.28
  L 51.01 24.28
  A 0.33 0.33 0.0 0 0 51.34 24.00
  L 51.89 20.33
  Q 51.93 20.06 51.66 20.06
  Z"
/>
</svg>
